<?xml version="1.0" encoding="UTF-8"?>
<svg width="300px" height="200px" viewBox="0 0 300 200" version="1.1" xmlns="http://www.w3.org/2000/svg" xmlns:xlink="http://www.w3.org/1999/xlink">
    <!-- Generator: Sketch 46.2 (44496) - http://www.bohemiancoding.com/sketch -->
    <title>Leader</title>
    <desc>Created with Sketch.</desc>
    <defs>
        <path d="M300,4 L298,4 C295.790861,4 294,5.790861 294,8 L294,17 C294,19.209139 295.790861,21 298,21 L300,21 L300,103.084104 L300,200 L119.246345,200 L119.246345,199.999999 C108.564702,199.999999 99.5848977,191.981715 98.3803077,181.368211 C92.2236645,127.122737 75.1553207,100 47.1752761,100 C35.1168507,100 23.0584254,100 11,100 L11,100 C4.92486775,100 7.43989126e-16,95.0751322 0,89 L2.84217094e-14,11 C3.0375621e-14,4.92486775 4.92486775,1.11250108e-13 11,1.10134124e-13 L11,1.13686838e-13 L300,2.27373675e-13 L300,4 Z M196,4 C193.790861,4 192,5.790861 192,8 L192,17 C192,19.209139 193.790861,21 196,21 L199,21 C201.209139,21 203,19.209139 203,17 L203,8 C203,5.790861 201.209139,4 199,4 L196,4 Z M213,4 C210.790861,4 209,5.790861 209,8 L209,17 C209,19.209139 210.790861,21 213,21 L216,21 C218.209139,21 220,19.209139 220,17 L220,8 C220,5.790861 218.209139,4 216,4 L213,4 Z M230,4 C227.790861,4 226,5.790861 226,8 L226,17 C226,19.209139 227.790861,21 230,21 L233,21 C235.209139,21 237,19.209139 237,17 L237,8 C237,5.790861 235.209139,4 233,4 L230,4 Z M247,4 C244.790861,4 243,5.790861 243,8 L243,17 C243,19.209139 244.790861,21 247,21 L250,21 C252.209139,21 254,19.209139 254,17 L254,8 C254,5.790861 252.209139,4 250,4 L247,4 Z M264,4 C261.790861,4 260,5.790861 260,8 L260,17 C260,19.209139 261.790861,21 264,21 L267,21 C269.209139,21 271,19.209139 271,17 L271,8 C271,5.790861 269.209139,4 267,4 L264,4 Z M281,4 C278.790861,4 277,5.790861 277,8 L277,17 C277,19.209139 278.790861,21 281,21 L284,21 C286.209139,21 288,19.209139 288,17 L288,8 C288,5.790861 286.209139,4 284,4 L281,4 Z M179,4 C176.790861,4 175,5.790861 175,8 L175,17 C175,19.209139 176.790861,21 179,21 L182,21 C184.209139,21 186,19.209139 186,17 L186,8 C186,5.790861 184.209139,4 182,4 L179,4 Z M162,4 C159.790861,4 158,5.790861 158,8 L158,17 C158,19.209139 159.790861,21 162,21 L165,21 C167.209139,21 169,19.209139 169,17 L169,8 C169,5.790861 167.209139,4 165,4 L162,4 Z M145,4 C142.790861,4 141,5.790861 141,8 L141,17 C141,19.209139 142.790861,21 145,21 L148,21 C150.209139,21 152,19.209139 152,17 L152,8 C152,5.790861 150.209139,4 148,4 L145,4 Z M128,4 C125.790861,4 124,5.790861 124,8 L124,17 C124,19.209139 125.790861,21 128,21 L131,21 C133.209139,21 135,19.209139 135,17 L135,8 C135,5.790861 133.209139,4 131,4 L128,4 Z M111,4 C108.790861,4 107,5.790861 107,8 L107,17 C107,19.209139 108.790861,21 111,21 L114,21 C116.209139,21 118,19.209139 118,17 L118,8 C118,5.790861 116.209139,4 114,4 L111,4 Z M93,4 C90.790861,4 89,5.790861 89,8 L89,17 C89,19.209139 90.790861,21 93,21 L96,21 C98.209139,21 100,19.209139 100,17 L100,8 C100,5.790861 98.209139,4 96,4 L93,4 Z M76,4 C73.790861,4 72,5.790861 72,8 L72,17 C72,19.209139 73.790861,21 76,21 L79,21 C81.209139,21 83,19.209139 83,17 L83,8 C83,5.790861 81.209139,4 79,4 L76,4 Z M59,4 C56.790861,4 55,5.790861 55,8 L55,17 C55,19.209139 56.790861,21 59,21 L62,21 C64.209139,21 66,19.209139 66,17 L66,8 C66,5.790861 64.209139,4 62,4 L59,4 Z M42,4 C39.790861,4 38,5.790861 38,8 L38,17 C38,19.209139 39.790861,21 42,21 L45,21 C47.209139,21 49,19.209139 49,17 L49,8 C49,5.790861 47.209139,4 45,4 L42,4 Z M25,4 C22.790861,4 21,5.790861 21,8 L21,17 C21,19.209139 22.790861,21 25,21 L28,21 C30.209139,21 32,19.209139 32,17 L32,8 C32,5.790861 30.209139,4 28,4 L25,4 Z M8,4 C5.790861,4 4,5.790861 4,8 L4,17 C4,19.209139 5.790861,21 8,21 L11,21 C13.209139,21 15,19.209139 15,17 L15,8 C15,5.790861 13.209139,4 11,4 L8,4 Z" id="path-1"></path>
    </defs>
    <g id="Page-1" stroke="none" stroke-width="1" fill="none" fill-rule="evenodd">
        <mask id="mask-2" fill="white">
            <use xlink:href="#path-1"></use>
        </mask>
        <use id="Leader" fill="#000000" xlink:href="#path-1"></use>
    </g>
</svg>