<?xml version="1.0" encoding="UTF-8"?>
<svg width="100px" height="91px" viewBox="0 0 100 91" version="1.1" xmlns="http://www.w3.org/2000/svg" xmlns:xlink="http://www.w3.org/1999/xlink">
    <!-- Generator: Sketch 58 (84663) - https://sketch.com -->
    <title>Coffee</title>
    <desc>Created with Sketch.</desc>
    <g id="Page-1" stroke="none" stroke-width="1" fill="none" fill-rule="evenodd">
        <g id="Coffee" transform="translate(0.000000, 0.000000)" fill="#D8D8D8">
            <path d="M86,45.6396103 C86,46.3987201 85.9820391,47.1534397 85.9465377,47.9033292 C87.2502394,47.3409942 88.5095886,47.2634969 89.6507022,47.8200552 C98.0893363,51.9358521 101.593688,62.1132293 97.4778914,70.5518635 C93.3620946,78.9904976 83.1847173,82.4948497 74.7460832,78.3790528 C74.2447048,78.1345142 73.8257304,77.7966285 73.4829079,77.3782146 C65.6957763,85.5691791 54.9137025,90.6396103 43,90.6396103 C19.2517558,90.6396103 7.10542736e-15,70.492424 7.10542736e-15,45.6396103 C7.10542736e-15,20.7867966 86,20.7867966 86,45.6396103 Z M43,30.6396103 C21.4608948,30.6396103 4,37.5791967 4,46.1396103 C4,54.7000239 21.4608948,61.6396103 43,61.6396103 C64.5391052,61.6396103 82,54.7000239 82,46.1396103 C82,37.5791967 64.5391052,30.6396103 43,30.6396103 Z M83.0532222,75.2514973 C87.4715002,75.2514973 93,71.2989899 93,65.5 C93,59.7010101 89.8761524,55.7026303 85.737108,56.8556862 C81.5980637,58.0087421 81.6609593,63.5778673 77.8000036,67.0647623 C73.9390479,70.5516574 78.6349442,75.2514973 83.0532222,75.2514973 Z" id="Cup"></path>
            <path d="M41.7289178,54 C27.3023613,49.868965 20.4060653,44.3924194 21.0400296,37.5703633 C21.990976,27.337279 53.1494122,27.0208173 53.1494122,17.4789374 C53.1494122,11.1176842 50.6097609,5.2913717 45.5304582,0 C56.0730814,10.155176 59.7812418,18.1373978 56.6549395,23.9466652 C51.9654861,32.6605662 41.8872581,32.2333785 35.6685468,36.6691585 C31.5227393,39.6263451 33.5428629,45.4032923 41.7289178,54 Z" id="Steam"></path>
        </g>
    </g>
</svg>
