<?xml version="1.0" encoding="UTF-8"?>
<svg width="470px" height="525px" viewBox="0 0 470 525" version="1.1" xmlns="http://www.w3.org/2000/svg" xmlns:xlink="http://www.w3.org/1999/xlink">
    <!-- Generator: Sketch 46.2 (44496) - http://www.bohemiancoding.com/sketch -->
    <title>Group</title>
    <desc>Created with Sketch.</desc>
    <defs></defs>
    <g id="Page-1" stroke="none" stroke-width="1" fill="none" fill-rule="evenodd">
        <g id="Group" transform="translate(-3.000000, -3.000000)" fill="#000000">
            <rect id="Rectangle-Copy-24" transform="translate(44.882684, 430.962987) rotate(-45.000000) translate(-44.882684, -430.962987) " x="13.3826843" y="399.462987" width="63" height="63" rx="8"></rect>
            <rect id="Rectangle-Copy-4" transform="translate(210.345671, 265.500000) rotate(-45.000000) translate(-210.345671, -265.500000) " x="178.845671" y="234" width="63" height="63" rx="8"></rect>
            <rect id="Rectangle-Copy-8" transform="translate(320.654329, 155.191342) rotate(-45.000000) translate(-320.654329, -155.191342) " x="289.154329" y="123.691342" width="63" height="63" rx="8"></rect>
            <rect id="Rectangle-Copy-12" transform="translate(320.654329, 375.808658) rotate(-45.000000) translate(-320.654329, -375.808658) " x="289.154329" y="344.308658" width="63" height="63" rx="8"></rect>
            <rect id="Rectangle-Copy-20" transform="translate(210.345671, 486.117316) rotate(-45.000000) translate(-210.345671, -486.117316) " x="178.845671" y="454.617316" width="63" height="63" rx="8"></rect>
            <rect id="Rectangle-Copy-16" transform="translate(320.547727, 486.547727) rotate(-45.000000) translate(-320.547727, -486.547727) " x="289.047727" y="455.047727" width="63" height="63" rx="8"></rect>
            <rect id="Rectangle-Copy" transform="translate(155.191342, 320.654329) rotate(-45.000000) translate(-155.191342, -320.654329) " x="123.691342" y="289.154329" width="63" height="63" rx="8"></rect>
            <rect id="Rectangle-Copy-5" transform="translate(265.500000, 210.345671) rotate(-45.000000) translate(-265.500000, -210.345671) " x="234" y="178.845671" width="63" height="63" rx="8"></rect>
            <rect id="Rectangle-Copy-9" transform="translate(375.808658, 100.037013) rotate(-45.000000) translate(-375.808658, -100.037013) " x="344.308658" y="68.5370132" width="63" height="63" rx="8"></rect>
            <rect id="Rectangle-Copy-26" transform="translate(155.547727, 99.547727) rotate(-45.000000) translate(-155.547727, -99.547727) " x="124.047727" y="68.0477272" width="63" height="63" rx="8"></rect>
            <rect id="Rectangle-Copy-21" transform="translate(265.500000, 430.962987) rotate(-45.000000) translate(-265.500000, -430.962987) " x="234" y="399.462987" width="63" height="63" rx="8"></rect>
            <rect id="Rectangle-Copy-6" transform="translate(210.345671, 155.191342) rotate(-45.000000) translate(-210.345671, -155.191342) " x="178.845671" y="123.691342" width="63" height="63" rx="8"></rect>
            <rect id="Rectangle-Copy-10" transform="translate(320.654329, 44.882684) rotate(-45.000000) translate(-320.654329, -44.882684) " x="289.154329" y="13.3826843" width="63" height="63" rx="8"></rect>
            <rect id="Rectangle-Copy-14" transform="translate(320.654329, 265.500000) rotate(-45.000000) translate(-320.654329, -265.500000) " x="289.154329" y="234" width="63" height="63" rx="8"></rect>
            <rect id="Rectangle-Copy-22" transform="translate(210.345671, 375.808658) rotate(-45.000000) translate(-210.345671, -375.808658) " x="178.845671" y="344.308658" width="63" height="63" rx="8"></rect>
            <rect id="Rectangle-Copy-18" transform="translate(430.962987, 155.191342) rotate(-45.000000) translate(-430.962987, -155.191342) " x="399.462987" y="123.691342" width="63" height="63" rx="8"></rect>
            <rect id="Rectangle-Copy-7" transform="translate(155.191342, 210.345671) rotate(-45.000000) translate(-155.191342, -210.345671) " x="123.691342" y="178.845671" width="63" height="63" rx="8"></rect>
            <rect id="Rectangle-Copy-11" transform="translate(265.500000, 100.037013) rotate(-45.000000) translate(-265.500000, -100.037013) " x="234" y="68.5370132" width="63" height="63" rx="8"></rect>
            <rect id="Rectangle-Copy-15" transform="translate(265.500000, 320.654329) rotate(-45.000000) translate(-265.500000, -320.654329) " x="234" y="289.154329" width="63" height="63" rx="8"></rect>
            <rect id="Rectangle-Copy-23" transform="translate(155.191342, 430.962987) rotate(-45.000000) translate(-155.191342, -430.962987) " x="123.691342" y="399.462987" width="63" height="63" rx="8"></rect>
            <rect id="Rectangle-Copy-25" transform="translate(100.037013, 486.117316) rotate(-45.000000) translate(-100.037013, -486.117316) " x="68.5370132" y="454.617316" width="63" height="63" rx="8"></rect>
        </g>
    </g>
</svg>